<svg width="59" height="58" viewBox="0 0 59 58" fill="none" xmlns="http://www.w3.org/2000/svg">
<path fill-rule="evenodd" clip-rule="evenodd" d="M1.20704 40.2347L0 37.0159L7.24224 31.383V26.9572L0 20.922L1.60939 17.3009L3.21877 13.6798L12.0704 14.8868L15.2892 12.0704L14.0821 3.21877L21.3244 0L26.1525 6.83989H31.383L36.6136 0L44.2581 3.21877L42.6488 12.0704L46.2699 14.8868L54.3168 13.6798L58.3403 20.922L51.098 26.9572V31.383L58.3403 37.0159L54.3168 44.2581L46.2699 42.6488L42.6488 45.8675L44.2581 55.1215L36.6136 57.9379L31.383 51.098H26.1525L21.3244 57.9379L14.0821 55.1215L15.2892 45.8675L12.0704 42.6488L3.21877 44.2581L1.20704 40.2347ZM29.3714 43.8558C37.3709 43.8558 43.8559 37.3709 43.8559 29.3713C43.8559 21.3718 37.3709 14.8868 29.3714 14.8868C21.3718 14.8868 14.8869 21.3718 14.8869 29.3713C14.8869 37.3709 21.3718 43.8558 29.3714 43.8558Z" fill="#F21D1D"/>
</svg>
