<svg width="33" height="30" viewBox="0 0 33 30" fill="none" xmlns="http://www.w3.org/2000/svg">
<path fill-rule="evenodd" clip-rule="evenodd" d="M16.9882 29.8154C16.9501 29.7914 9.00429 24.7838 5.69416 19.7763C5.58471 19.6107 5.477 19.448 5.37106 19.288C2.55763 15.0393 0.988281 12.6694 0.988281 7.22724C0.988281 3.24213 4.54534 0.32935 8.51776 0.0115559C12.8394 -0.334172 16.9691 7.19221 16.9883 7.22712C17.0079 7.19129 21.1375 -0.334141 25.4588 0.0115655C29.4312 0.329359 32.9883 3.24214 32.9883 7.22725C32.9883 12.6694 31.4189 15.0393 28.6055 19.288C28.4996 19.448 28.3919 19.6107 28.2824 19.7763C24.9723 24.7838 17.0264 29.7914 16.9883 29.8154V29.8155C16.9883 29.8155 16.9883 29.8155 16.9883 29.8154C16.9882 29.8155 16.9882 29.8155 16.9882 29.8155V29.8154Z" fill="#F21D1D"/>
</svg>
