<svg width="40" height="29" viewBox="0 0 40 29" fill="none" xmlns="http://www.w3.org/2000/svg">
<path d="M1.78369 14.9825V24.2807C1.78369 24.2807 2.23897 25.9947 2.97387 26.7602C3.70877 27.5258 5.35422 28 5.35422 28H35.7037C35.7037 28 37.1321 27.4585 37.7865 26.7602C38.5125 25.9855 38.9767 24.2807 38.9767 24.2807V14.9825" stroke="#C6C5C5" stroke-width="2"/>
<path d="M21.0872 0.792891C20.6967 0.402367 20.0635 0.402367 19.673 0.792891L13.3091 7.15685C12.9185 7.54738 12.9185 8.18054 13.3091 8.57107C13.6996 8.96159 14.3327 8.96159 14.7233 8.57107L20.3801 2.91421L26.037 8.57107C26.4275 8.96159 27.0607 8.96159 27.4512 8.57107C27.8417 8.18054 27.8417 7.54738 27.4512 7.15685L21.0872 0.792891ZM21.3801 22.886L21.3801 1.5H19.3801L19.3801 22.886H21.3801Z" fill="#C6C5C5"/>
</svg>
