<svg width="134" height="133" viewBox="0 0 134 133" fill="none" xmlns="http://www.w3.org/2000/svg">
<path d="M27.4657 132.515H49.9657V92.0153V90.0153L51.9657 85.5153L56.9657 83.0153H59.9657H71.9657H75.4657C77.6488 83.0153 78.9082 83.9856 80.4657 85.5153C81.8999 86.924 82.6853 88.0246 82.9657 90.0153C83.0746 90.7887 82.9657 92.0153 82.9657 92.0153V132.515H106.466H109.466C111.966 132.515 113.495 131.471 114.966 129.515C115.968 128.182 116.466 127.184 116.466 125.515V123.015V74.5153H122.966H126.466C128.966 74.5153 131.322 72.3427 132.466 69.5153C133.647 66.5967 132.966 63.0153 131.466 61.5153L128.966 59.0153L116.466 46.0153V15.0153C116.466 14.0153 115.512 12.6915 114.466 11.5153C112.952 9.81407 111.743 8.51532 109.466 8.51532H105.966H100.466H97.4657C95.3536 8.51532 94.2309 9.82409 92.9657 11.5153C92.0749 12.7061 91.4657 13.5282 91.4657 15.0153V17.5153V21.5153L75.4657 5.51532C75.4657 5.51532 74.0518 3.86784 72.9657 3.01532L72.9364 2.99233C70.612 1.16779 68.9223 -0.158596 65.9657 0.0153218C63.3505 0.169157 62.0113 1.3788 59.9657 3.01532C58.8875 3.87785 57.4657 5.51532 57.4657 5.51532L4.96569 57.5153C4.96569 57.5153 3.96583 58.5153 1.96569 61.0153C-0.243545 63.7767 -0.610388 66.8496 0.965688 70.0153C2.27105 72.6373 4.03676 74.5153 6.96569 74.5153H9.96569H16.4657V122.515V126.015C16.4657 128.026 17.4838 129.157 18.9657 130.515C20.2531 131.695 21.2192 132.515 22.9657 132.515H27.4657Z" fill="#999999"/>
</svg>
