<svg width="33" height="27" viewBox="0 0 33 27" fill="none" xmlns="http://www.w3.org/2000/svg">
<path d="M10.3489 6.27907V7.22093C10.3486 8.08789 11.057 8.88644 11.9186 8.7907C12.6989 8.704 13.1742 8.006 13.1745 7.22093V6.27907V2.82558H29.1861V23.8605H13.1745V20.093V19.4651C13.1743 18.7716 12.608 18.2859 11.9186 18.2093C11.1384 18.1226 10.3487 18.6801 10.3489 19.4651V20.093V24.8023C10.3489 24.8023 10.349 25.7442 10.3489 26.0581C10.3487 26.5002 11.1626 27 11.6047 27H12.2326H30.7559H31.3838C31.7305 27 32.3256 26.4049 32.3256 26.0581C32.3257 25.4302 32.3256 24.8023 32.3256 24.8023V1.88372C32.3256 1.88372 32.3257 1.25581 32.3256 0.941862C32.3255 0.499798 31.8258 -7.56507e-06 31.3838 0H30.7559H12.2326H11.2907C10.7706 8.80562e-06 10.3489 0.421687 10.3489 0.941862V1.88372V6.27907Z" fill="#696969"/>
<path d="M23.2208 11.9302H22.279H5.3255L6.89527 10.3605L7.52318 9.73254C8.04335 9.21237 8.00192 8.40736 7.52318 7.84882C6.96464 7.1972 5.93238 7.24196 5.3255 7.84882L4.6976 8.47673L0.930153 12.2442C0.542438 12.6319 0.302246 12.9517 0.302246 13.5C0.302246 14.0483 0.542437 14.3681 0.930153 14.7558L4.6976 18.5232L5.3255 19.1511C5.93237 19.758 6.96464 19.8028 7.52318 19.1511C8.00192 18.5926 8.04335 17.7876 7.52318 17.2674L6.89527 16.6395L5.3255 15.0698H22.279H23.2208C23.9358 15.0698 24.1627 14.2149 24.1627 13.5C24.1627 12.7851 23.9358 11.9302 23.2208 11.9302Z" fill="#696969"/>
</svg>
