<svg width="44" height="53" viewBox="0 0 44 53" fill="none" xmlns="http://www.w3.org/2000/svg">
<path d="M22.0801 21.2847C27.9577 21.2847 32.7225 16.52 32.7225 10.6424C32.7225 4.76474 27.9577 0 22.0801 0C16.2025 0 11.4377 4.76474 11.4377 10.6424C11.4377 16.52 16.2025 21.2847 22.0801 21.2847Z" fill="#999999"/>
<path d="M43.5 49.5C43.5 51 41.3702 52.1476 40.5 52.1476H38H7.18691H3.87412C2.34806 52.1476 1.37565 50.9791 1.00005 49.5C0.855773 48.9318 0.96531 48.9375 0.944017 48C0.850085 43.8642 1.01784 32.4306 5.58423 29.7986C11.3483 26.4762 15.3722 25.0658 22.0799 25.0095C28.9874 24.9516 33.2235 26.283 39.1077 29.7986C43.7109 32.5489 43.5 48 43.5 48V49.5Z" fill="#999999"/>
</svg>
