<svg width="62" height="51" viewBox="0 0 62 51" fill="none" xmlns="http://www.w3.org/2000/svg">
<path d="M32 2.37979L32 9.76161L32 11.0798C32 11.739 32.6614 12.0772 33.3182 12.1343C34.0578 12.1987 34.9 11.8222 34.9 11.0798L34.9 9.76161L34.9 2.37979L34.9 1.06161C34.9 0.31918 34.0578 -0.057252 33.3182 0.00706476C32.6614 0.0641746 32 0.402368 32 1.06161L32 2.37979Z" fill="white"/>
<path d="M58.891 26.1H51.5092H50.191C49.5318 26.1 49.1936 26.7614 49.1365 27.4182C49.0721 28.1578 49.4486 29 50.191 29H51.5092H58.891H60.2092C60.9516 29 61.328 28.1578 61.2637 27.4182C61.2066 26.7614 60.8684 26.1 60.2092 26.1H58.891Z" fill="white"/>
<path d="M50.5026 8.53732L45.2829 13.757L44.3508 14.6891C43.8846 15.1553 44.1132 15.8621 44.5372 16.3669C45.0147 16.9354 45.8764 17.2647 46.4014 16.7398L47.3335 15.8077L52.5532 10.5879L53.4853 9.65583C54.0103 9.13086 53.6809 8.26917 53.1125 7.79164C52.6077 7.36762 51.9008 7.13907 51.4347 7.60522L50.5026 8.53732Z" fill="white"/>
<path fill-rule="evenodd" clip-rule="evenodd" d="M38.8724 26.531C38.2749 27.3999 37.2472 28.8396 36.3737 29.7877C34.9672 31.3141 32.3737 33.2877 32.3737 33.2877C32.3737 33.2877 32.4778 40.9404 30.499 47.6225C27.3182 49.7557 23.4912 51 19.3737 51C10.0493 51 2.21521 44.619 0 35.9856C2.50171 36.278 4.37366 36.2876 4.37366 36.2876C4.32751 36.2687 3.8064 31.4293 5.37366 27.2877C6.37048 24.6535 8.77161 22.5993 10.8737 21.2877C13.5533 19.6156 18.4149 18.4271 21.8737 19.2877C26.1864 20.3608 28.8737 23.7877 28.8737 23.7877C28.8737 23.7877 31.6637 23.0001 33.3737 22.2877C34.3855 21.8661 35.7028 21.1859 36.5436 20.7377C36.6716 20.9515 36.7958 21.1679 36.916 21.3867C36.5328 22.2592 35.9564 23.465 35.3737 24.2877C34.2563 25.865 31.8737 27.7877 31.8737 27.7877C31.8737 27.7877 34.0326 27.6159 35.3737 27.2877C36.4818 27.0164 37.9449 26.4147 38.7593 26.0614C38.7988 26.2172 38.8365 26.3737 38.8724 26.531Z" fill="white"/>
</svg>
