<svg width="32" height="32" viewBox="0 0 32 32" fill="none" xmlns="http://www.w3.org/2000/svg">
<path fill-rule="evenodd" clip-rule="evenodd" d="M31.5362 19.84C29.8163 26.8219 23.5129 32 16 32C7.16344 32 0 24.8366 0 16C0 7.16344 7.16344 0 16 0C24.1868 0 30.9375 6.14869 31.886 14.08H27.6851C26.7677 8.45403 21.8853 4.16 16 4.16C9.4609 4.16 4.15995 9.46095 4.15995 16C4.15995 22.5391 9.4609 27.84 16 27.84C21.1949 27.84 25.6085 24.4943 27.2034 19.84H31.3599H31.5362Z" fill="#C4C4C4"/>
<path d="M31.9999 14.08H17.9199L31.9999 0V14.08Z" fill="#C4C4C4"/>
</svg>
