<svg width="220" height="181" viewBox="0 0 220 181" fill="none" xmlns="http://www.w3.org/2000/svg">
<path fill-rule="evenodd" clip-rule="evenodd" d="M219.872 42.597C216.492 47.5121 210.679 55.6555 205.738 61.0177C197.782 69.6517 183.113 80.8146 183.113 80.8146C183.113 80.8146 183.702 124.1 172.509 161.896C154.518 173.962 132.872 181 109.582 181C56.8406 181 12.5293 144.908 -0.000488281 96.0749C14.1498 97.729 24.7377 97.7833 24.7377 97.7833C24.477 97.6759 21.5295 70.303 30.394 46.8771C36.0322 31.9773 49.614 20.3583 61.5034 12.9395C76.6602 3.48193 104.159 -3.24076 123.722 1.62708C148.116 7.69678 163.316 27.0802 163.316 27.0802C163.316 27.0802 179.097 22.6257 188.769 18.5958C194.492 16.2112 201.943 12.3638 206.699 9.82907C207.424 11.0382 208.126 12.2619 208.806 13.4998C206.638 18.4346 203.378 25.2549 200.082 29.9083C193.762 38.8303 180.285 49.7052 180.285 49.7052C180.285 49.7052 192.496 48.7339 200.082 46.8771C206.35 45.3428 214.625 41.9394 219.231 39.9406C219.455 40.822 219.669 41.7075 219.872 42.597Z" fill="#F21D1D"/>
<rect x="102.12" y="48.8478" width="9.1439" height="34.4422" rx="4.57195" transform="rotate(-138.476 102.12 48.8478)" fill="white"/>
<rect x="94" y="25.3192" width="9.1439" height="34.4422" rx="4.57195" transform="rotate(-49.8668 94 25.3192)" fill="white"/>
</svg>
