<svg width="160" height="160" viewBox="0 0 160 160" fill="none" xmlns="http://www.w3.org/2000/svg">
<path fill-rule="evenodd" clip-rule="evenodd" d="M155.203 154.869C161 148.527 160.644 139.518 155.203 132.869C154.326 131.797 152.689 130.369 152.689 130.369L62.2028 40.3688C62.2028 40.3688 63.5917 21.7192 57.2028 12.8688C52.0993 5.79906 47.2419 2.13203 38.7028 0.368758C32.7624 -0.857891 23.2028 1.36876 23.2028 1.36876L34.7028 12.8688C34.7028 12.8688 35.9913 14.0238 36.7028 14.8688C41.7397 20.8509 42.3688 28.593 37.7028 34.8688C32.0997 42.4049 20.9668 42.3205 13.7028 36.3688C12.8654 35.6826 11.7029 34.4489 11.7029 34.4489L0.702743 23.3687C0.702743 23.3687 -0.878623 34.3239 0.703034 40.3687C3.13501 49.6635 7.80484 55.2018 16.2028 59.8688C23.9512 64.1748 38.7028 62.8688 38.7028 62.8688L130.189 153.869C130.189 153.869 132.09 155.545 133.203 156.369C136.703 158.959 138.016 159.659 143.703 159.869C148.055 160.029 152.627 157.687 155.203 154.869ZM143.303 150.369C146.893 150.369 149.803 147.459 149.803 143.869C149.803 140.279 146.893 137.369 143.303 137.369C139.713 137.369 136.803 140.279 136.803 143.869C136.803 147.459 139.713 150.369 143.303 150.369Z" fill="#C4C4C4"/>
</svg>
