<?xml version="1.0" standalone="no"?>
<!DOCTYPE svg PUBLIC "-//W3C//DTD SVG 20010904//EN"
 "http://www.w3.org/TR/2001/REC-SVG-20010904/DTD/svg10.dtd">
<svg version="1.0" xmlns="http://www.w3.org/2000/svg"
 width="1104.000000pt" height="1104.000000pt" viewBox="0 0 1104.000000 1104.000000"
 preserveAspectRatio="xMidYMid meet">
<metadata>
Created by potrace 1.11, written by Peter Selinger 2001-2013
</metadata>
<g transform="translate(0.000000,1104.000000) scale(0.100000,-0.100000)"
fill="#000000" stroke="none">
<path d="M3038 10075 c-3 -2 -23 -5 -152 -21 -22 -3 -47 -9 -57 -14 -9 -5 -19
-7 -22 -4 -3 3 -12 2 -19 -2 -7 -5 -21 -10 -31 -11 -9 -2 -50 -14 -90 -29 -39
-14 -80 -27 -89 -29 -9 -2 -79 -34 -154 -72 -178 -89 -174 -87 -174 -95 0 -5
-5 -8 -11 -8 -12 0 -177 -113 -219 -150 -14 -12 -38 -31 -55 -43 -16 -12 -88
-80 -160 -152 -71 -71 -134 -128 -140 -126 -87 28 -201 58 -207 55 -4 -3 -8 0
-8 5 0 6 -6 11 -13 11 -13 0 -222 67 -296 95 -173 65 -205 78 -321 133 -30 15
-58 25 -63 24 -4 -1 -7 3 -7 10 0 6 -3 9 -6 5 -3 -3 -22 4 -42 15 -21 12 -82
44 -137 72 -55 28 -103 55 -107 61 -4 5 -8 6 -8 1 0 -5 -6 -4 -12 1 -15 12
-107 63 -113 63 -5 0 22 -68 41 -102 8 -15 15 -31 16 -35 4 -49 202 -429 262
-505 12 -14 28 -35 36 -46 58 -77 247 -272 343 -354 27 -24 69 -62 93 -84 23
-23 50 -44 58 -47 47 -18 -10 -28 -80 -13 -16 3 -60 8 -99 12 -38 3 -79 8 -90
10 -11 3 -37 7 -57 9 -36 5 -210 39 -236 46 -8 2 -78 26 -155 52 -78 26 -146
49 -152 51 -5 2 -32 13 -58 24 -27 12 -51 22 -53 22 -2 0 -26 10 -52 21 -26
12 -65 29 -87 39 -22 10 -42 17 -43 15 -8 -7 241 -359 317 -451 14 -17 38 -46
53 -65 92 -118 293 -314 483 -469 55 -45 111 -92 125 -104 14 -11 42 -33 62
-48 56 -42 69 -59 67 -82 0 -11 -1 -23 0 -26 1 -3 4 -88 6 -190 3 -102 7 -216
9 -255 8 -140 18 -280 22 -300 4 -20 13 -118 19 -205 2 -25 4 -45 5 -45 1 0 3
-22 5 -49 3 -27 7 -66 11 -85 3 -20 7 -47 9 -61 9 -73 17 -131 27 -185 5 -33
12 -73 14 -90 1 -16 10 -66 18 -110 14 -76 19 -97 31 -155 3 -14 7 -34 9 -45
19 -97 31 -151 36 -155 3 -3 6 -20 8 -39 1 -19 7 -40 13 -48 6 -7 9 -13 6 -13
-2 0 4 -33 15 -72 11 -40 21 -80 23 -88 2 -8 4 -16 5 -17 2 -2 3 -6 4 -10 12
-53 111 -341 142 -411 13 -29 24 -56 24 -60 4 -23 159 -335 222 -447 21 -38
42 -78 45 -87 3 -10 9 -18 14 -18 5 0 9 -5 9 -10 0 -6 39 -77 86 -158 128
-219 160 -271 178 -291 9 -10 13 -21 10 -24 -4 -4 1 -9 10 -13 9 -3 16 -11 16
-17 0 -8 69 -118 103 -162 4 -5 23 -35 43 -65 20 -30 43 -61 52 -67 9 -7 13
-13 9 -13 -4 0 0 -8 7 -18 8 -9 63 -82 122 -162 60 -80 113 -150 119 -156 20
-21 100 -117 114 -136 7 -11 25 -32 40 -47 14 -15 53 -59 86 -96 131 -151 444
-454 595 -576 25 -20 61 -51 80 -68 19 -17 38 -31 42 -31 4 0 17 -10 30 -22
13 -13 42 -36 66 -52 23 -16 42 -32 42 -37 0 -4 9 -11 20 -14 11 -3 26 -12 32
-19 19 -18 296 -204 332 -223 17 -9 33 -19 36 -22 8 -10 43 -31 73 -44 15 -6
27 -15 27 -19 0 -4 6 -8 14 -8 7 0 19 -7 26 -15 7 -8 16 -12 21 -9 5 3 9 1 9
-4 0 -5 8 -12 18 -15 9 -4 42 -20 72 -37 81 -46 189 -100 196 -99 4 0 10 -3
13 -8 3 -5 47 -27 96 -50 50 -23 122 -56 160 -74 39 -18 75 -34 80 -35 6 -2
71 -28 145 -58 165 -66 169 -68 250 -96 36 -12 74 -26 85 -30 41 -17 204 -69
268 -86 4 -1 8 -2 10 -4 1 -1 9 -3 17 -5 8 -2 56 -16 105 -30 50 -14 99 -27
110 -30 11 -2 45 -11 75 -19 30 -8 69 -18 85 -21 17 -3 41 -9 55 -12 14 -3 32
-6 40 -7 9 -1 20 -5 25 -8 6 -3 26 -7 45 -9 19 -2 41 -7 48 -12 6 -5 12 -7 12
-5 0 3 21 1 48 -4 26 -5 63 -11 82 -14 19 -2 46 -6 60 -9 90 -19 283 -43 378
-48 17 -1 32 -6 32 -11 0 -4 6 -3 13 3 8 6 16 9 18 6 20 -20 751 -28 984 -11
66 5 140 10 165 11 25 2 45 4 45 5 0 1 23 3 50 5 99 7 241 21 295 30 14 2 54
7 90 10 36 4 72 9 80 10 14 2 71 10 145 20 17 2 46 6 65 10 19 4 46 9 60 11
44 6 89 15 143 29 28 7 55 11 59 9 5 -3 8 0 8 5 0 6 3 10 8 9 12 -3 230 56
320 87 7 2 13 4 15 4 1 1 47 17 102 37 55 20 105 37 110 38 6 1 20 7 32 14 12
7 29 12 37 12 9 0 16 5 16 10 0 6 3 9 8 8 10 -2 65 13 77 22 6 4 37 17 70 30
60 23 116 48 230 99 33 15 80 36 105 47 72 31 594 294 600 303 5 8 36 21 46
20 4 0 10 4 13 9 3 5 25 19 48 31 23 11 44 24 46 28 3 5 -117 9 -266 10 -150
1 -328 5 -397 9 -69 4 -140 7 -157 7 -18 1 -33 5 -33 9 0 5 -8 4 -19 -1 -10
-6 -21 -8 -23 -5 -5 4 -49 10 -158 19 -30 3 -73 7 -95 9 -22 3 -62 8 -89 11
-78 9 -187 25 -249 36 -32 5 -70 12 -85 15 -68 11 -120 22 -157 32 -22 6 -52
13 -67 16 -80 14 -282 82 -403 136 -92 41 -120 54 -125 55 -3 0 -33 15 -67 33
-35 18 -65 31 -67 30 -2 -2 -12 4 -22 13 -11 9 -37 25 -59 35 -46 23 -176 96
-220 124 -16 11 -37 23 -45 27 -16 7 -188 114 -232 144 -15 11 -30 19 -33 19
-3 0 -11 5 -18 11 -7 5 -41 29 -77 52 -36 22 -67 43 -70 47 -5 5 -18 14 -72
48 -16 9 -28 20 -28 23 0 6 69 23 140 34 41 7 298 73 320 82 8 3 20 7 25 7 33
4 306 98 405 139 14 6 27 11 30 12 112 38 356 171 465 254 61 46 266 248 320
315 17 21 42 52 57 69 66 77 176 226 171 231 -4 3 -1 6 5 6 6 0 32 30 57 68
25 37 87 130 139 207 52 77 94 141 92 142 -1 2 -24 -3 -49 -11 -26 -8 -47 -12
-47 -10 0 2 -12 -1 -27 -7 -14 -5 -47 -12 -72 -15 -25 -3 -50 -8 -55 -11 -5
-3 -21 -8 -35 -9 -14 -2 -48 -6 -76 -9 -27 -3 -68 -8 -90 -11 -51 -6 -260 -6
-300 0 -111 17 -172 34 -277 78 -43 18 -76 38 -74 43 2 6 9 9 15 7 6 -1 11 2
11 8 0 5 5 10 11 10 5 0 35 11 65 25 30 14 59 25 64 25 6 0 10 5 10 10 0 6 6
10 13 10 14 0 255 120 362 180 76 42 258 152 265 160 3 3 17 11 32 19 15 8 37
22 47 33 11 10 23 18 26 18 9 0 140 101 143 111 2 5 8 9 13 9 10 0 11 1 114
99 118 112 207 240 300 431 41 84 90 201 97 230 2 8 5 17 8 20 6 6 83 239 85
260 1 8 5 23 9 33 16 44 20 61 30 112 1 6 4 15 8 20 5 8 15 54 24 110 1 6 3
12 4 15 3 9 9 34 25 110 9 43 14 73 20 115 3 22 8 47 10 55 2 8 7 30 10 48 6
38 11 40 -88 -30 -37 -26 -72 -48 -77 -48 -6 0 -10 -4 -10 -10 0 -5 -4 -10 -8
-10 -5 0 -46 -21 -91 -47 -46 -26 -89 -48 -95 -50 -6 -1 -42 -12 -81 -23 -82
-25 -101 -28 -241 -46 -106 -13 -334 -23 -334 -15 0 4 11 13 24 21 34 21 129
103 205 177 36 35 68 63 71 63 4 0 13 11 20 25 7 13 17 22 22 19 4 -3 8 0 8 6
0 6 12 24 28 40 15 16 41 45 57 66 17 20 37 44 45 53 8 9 29 37 45 61 17 25
38 51 48 58 9 7 15 17 12 22 -3 4 2 13 10 20 8 7 32 40 52 74 20 33 39 63 42
66 18 15 177 338 186 375 1 6 5 17 8 25 70 184 121 403 143 610 3 36 8 68 10
72 3 4 0 9 -6 13 -6 4 -7 12 -3 18 8 14 11 137 3 137 -3 0 -4 22 -3 48 0 27
-3 71 -8 98 -5 27 -12 60 -14 74 -3 14 -8 36 -11 50 -3 14 -7 33 -7 43 -1 9
-4 17 -7 17 -3 0 -6 8 -7 18 -1 15 -33 116 -50 162 -4 8 -5 19 -4 24 1 5 -5
16 -14 26 -8 9 -12 19 -9 22 3 4 -3 19 -13 34 -10 16 -17 31 -16 34 3 6 -46
128 -93 228 -19 41 -34 78 -34 83 0 5 -4 9 -10 9 -5 0 -10 9 -10 20 0 11 -2
20 -5 20 -2 0 -121 -117 -263 -260 -143 -143 -265 -260 -271 -260 -6 0 -11 -7
-11 -15 0 -8 -3 -15 -8 -15 -4 0 -26 -17 -48 -37 -45 -42 -194 -176 -230 -208
-12 -11 -43 -38 -69 -60 -26 -22 -57 -48 -69 -58 -11 -10 -30 -26 -41 -35 -11
-10 -58 -48 -105 -85 -47 -37 -97 -79 -112 -92 -15 -14 -29 -25 -32 -25 -5 0
-16 -8 -68 -52 -12 -10 -24 -18 -27 -18 -3 0 -17 -10 -31 -22 -14 -13 -52 -41
-85 -63 -33 -22 -66 -45 -73 -52 -7 -7 -30 -22 -52 -34 -22 -13 -40 -26 -40
-31 0 -4 -5 -8 -12 -8 -6 0 -26 -11 -44 -25 -18 -14 -36 -25 -39 -25 -4 0 -26
-13 -49 -30 -24 -16 -46 -26 -50 -23 -3 4 -6 2 -6 -4 0 -5 -39 -30 -87 -54
-49 -24 -90 -46 -93 -49 -15 -15 -280 -134 -292 -132 -5 1 -8 -2 -8 -6 0 -9
-70 -37 -82 -34 -5 1 -8 -3 -8 -8 0 -6 -9 -10 -19 -10 -11 0 -22 -4 -26 -9 -3
-5 -19 -12 -35 -16 -17 -4 -30 -11 -30 -16 0 -6 -4 -8 -8 -5 -4 2 -21 -2 -37
-9 -26 -12 -66 -29 -170 -70 -11 -4 -24 -9 -30 -11 -5 -1 -47 -16 -93 -34 -45
-17 -88 -33 -95 -34 -6 -2 -21 -6 -32 -10 -48 -18 -188 -62 -227 -72 -10 -2
-28 -7 -40 -10 -13 -3 -34 -8 -48 -11 -14 -2 -32 -7 -40 -10 -8 -3 -21 -7 -29
-9 -7 -1 -34 -7 -60 -13 -25 -6 -62 -13 -81 -16 -19 -4 -53 -10 -75 -15 -22
-5 -62 -12 -90 -15 -27 -4 -59 -9 -70 -12 -11 -4 -27 -7 -35 -8 -37 -5 -184
-24 -230 -30 -76 -10 -160 -18 -192 -18 -21 0 -38 -3 -38 -6 0 -3 -30 -7 -68
-8 -37 -1 -114 -4 -172 -8 -58 -4 -137 -8 -176 -9 l-71 -2 6 65 c8 97 6 494
-3 586 -10 110 -13 132 -21 195 -4 30 -9 64 -10 75 -1 11 -3 20 -5 20 -1 0 -3
9 -5 20 -1 11 -5 38 -9 60 -3 22 -8 51 -12 65 -3 14 -9 41 -14 60 -4 19 -13
50 -18 68 -6 18 -11 34 -12 37 -1 6 -5 22 -21 75 -15 52 -51 144 -82 210 -12
25 -21 47 -22 50 -2 17 -166 260 -175 260 -4 0 -11 9 -16 19 -12 26 -163 182
-243 251 -35 30 -69 60 -75 65 -30 29 -192 147 -219 162 -18 9 -34 19 -37 23
-16 23 -309 177 -352 185 -10 2 -24 7 -31 12 -13 8 -68 29 -152 57 -93 31
-114 37 -134 41 -11 2 -46 10 -78 19 -76 20 -114 28 -138 32 -25 4 -59 10
-105 19 -19 3 -51 8 -70 11 -19 2 -48 7 -65 9 -34 6 -441 15 -447 10z"/>
</g>
</svg>
