<svg width="66" height="66" viewBox="0 0 66 66" fill="none" xmlns="http://www.w3.org/2000/svg">
<path d="M32.9913 65.9826C51.2119 65.9826 65.9826 51.2119 65.9826 32.9913C65.9826 14.7707 51.2119 0 32.9913 0C14.7707 0 0 14.7707 0 32.9913C0 51.2119 14.7707 65.9826 32.9913 65.9826Z" fill="#D2D2D2"/>
<path d="M32.9915 29.7986C38.8691 29.7986 43.6338 25.0338 43.6338 19.1562C43.6338 13.2786 38.8691 8.51389 32.9915 8.51389C27.1139 8.51389 22.3491 13.2786 22.3491 19.1562C22.3491 25.0338 27.1139 29.7986 32.9915 29.7986Z" fill="#7E7E7E"/>
<path fill-rule="evenodd" clip-rule="evenodd" d="M54.1463 58.3082C48.4197 63.0985 41.0434 65.9821 32.9935 65.9826C32.9928 65.9826 32.992 65.9826 32.9912 65.9825C31.7831 65.9391 30.6488 65.8875 29.5618 65.8065C22.887 65.1171 16.8027 62.4377 11.9123 58.3716C11.886 52.3415 12.3829 40.683 16.4955 38.3125C22.2596 34.9901 26.2835 33.5797 32.9912 33.5234C39.8987 33.4655 44.1348 34.7969 50.019 38.3125C54.0387 40.7141 54.2873 52.409 54.1463 58.3082Z" fill="#7E7E7E"/>
</svg>
