<svg width="48" height="40" viewBox="0 0 48 40" fill="none" xmlns="http://www.w3.org/2000/svg">
<path d="M7.30435 23.2345C11.0845 30.7392 15.8179 35.739 23.6522 38.4702C28.9354 40.3121 33.1476 40.2519 38.2609 39.5332C42.5689 38.9276 48 35.6357 48 35.6357C48 35.6357 42.2974 35.811 38.9565 34.5727C36.6132 33.7042 33.3913 31.3838 33.3913 31.3838C33.3913 31.3838 37.6433 30.6223 39.6522 28.9036C41.2968 27.4965 43.1304 24.4479 43.1304 24.4479C43.1304 24.4479 42.0806 24.7334 41.3913 24.8023C41.0745 24.8339 40.559 24.8668 40.559 24.8668C40.559 24.8668 39.9919 24.8595 39.6522 24.8023C38.9142 24.6779 38.2609 24.2975 38.2609 24.2975C38.2609 24.2975 42.1749 22.6577 43.8261 20.7543C45.6474 18.6548 46.2609 14.0223 46.2609 14.0223C46.2609 14.0223 45.2629 14.8006 44.5217 15.0852C43.623 15.4304 41.7391 15.4395 41.7391 15.4395C41.7391 15.4395 43.8261 14.0223 45.2174 11.1877C45.721 10.1616 46.4012 8.20326 46.2609 6.22727C46.1369 4.48158 44.8696 1.97546 44.8696 1.97546C44.8696 1.97546 39.9566 7.43823 35.8261 9.41613C34.2332 10.1789 32.1741 11.0935 30.2609 11.542C27.304 12.2352 24.3478 12.2507 24.3478 12.2507C24.3799 12.2372 24.7424 8.80783 23.6522 5.87295C22.9587 4.00625 21.2883 2.55058 19.8261 1.62113C17.962 0.43625 14.58 -0.405993 12.1739 0.203867C9.17378 0.964301 7.30435 3.39272 7.30435 3.39272C7.30435 3.39272 5.36343 2.83465 4.17391 2.32977C3.05243 1.85376 1.3913 0.912495 1.3913 0.912495C1.3913 0.912495 2.08035 2.73711 2.78261 3.74704C3.55986 4.86482 5.21739 6.22726 5.21739 6.22726C5.21739 6.22726 3.71556 6.10558 2.78261 5.87295C1.65532 5.59185 0 4.80999 0 4.80999C0 4.80999 1.1665 6.62696 2.08696 7.64454C3.06542 8.72623 4.86956 10.1248 4.86956 10.1248C4.86956 10.1248 4.76189 18.187 7.30435 23.2345Z" fill="#B0B0B0"/>
</svg>
