<svg width="69" height="57" viewBox="0 0 69 57" fill="none" xmlns="http://www.w3.org/2000/svg">
<path d="M10.5 32.7877C15.934 43.3779 22.7383 50.4335 34 54.2877C41.5947 56.8869 47.6497 56.802 55 55.7877C61.1928 54.9331 69 50.2877 69 50.2877C69 50.2877 60.8025 50.5351 56 48.7877C52.6315 47.562 48 44.2877 48 44.2877C48 44.2877 54.1123 43.2131 57 40.7877C59.3641 38.8021 62 34.5 62 34.5C62 34.5 60.4909 34.9029 59.5 35C59.0446 35.0446 58.3035 35.0911 58.3035 35.0911C58.3035 35.0911 57.4884 35.0808 57 35C55.9391 34.8245 55 34.2877 55 34.2877C55 34.2877 60.6264 31.9737 63 29.2877C65.6181 26.325 66.5 19.7877 66.5 19.7877C66.5 19.7877 65.0654 20.886 64 21.2877C62.7081 21.7748 60 21.7877 60 21.7877C60 21.7877 63 19.7877 65 15.7877C65.724 14.3397 66.7017 11.5761 66.5 8.78769C66.3218 6.32423 64.5 2.78769 64.5 2.78769C64.5 2.78769 57.4376 10.4965 51.5 13.2877C49.2102 14.3641 46.2502 15.6548 43.5 16.2877C39.2495 17.2659 35 17.2877 35 17.2877C35.0461 17.2687 35.5672 12.4293 34 8.28768C33.0032 5.65347 30.602 3.59928 28.5 2.28768C25.8203 0.615619 20.9587 -0.572921 17.5 0.287689C13.1873 1.36078 10.5 4.78768 10.5 4.78768C10.5 4.78768 7.70993 4.00015 6 3.28768C4.38786 2.61596 2 1.28768 2 1.28768C2 1.28768 2.99051 3.86251 4 5.28768C5.11731 6.86505 7.5 8.78768 7.5 8.78768C7.5 8.78768 5.34112 8.61596 4 8.28768C2.37952 7.89101 0 6.78768 0 6.78768C0 6.78768 1.67684 9.35172 3 10.7877C4.40654 12.3141 7 14.2877 7 14.2877C7 14.2877 6.84521 25.6649 10.5 32.7877Z" fill="#F21D1D"/>
</svg>
